<svg width="151" height="54" viewBox="0 0 151 54" fill="none" xmlns="http://www.w3.org/2000/svg">
<rect x="4" y="10" width="47" height="42" fill="#003064"/>
<path d="M0 26.5912V53.1824L26.6431 53.1518L53.2708 53.106L53.3168 26.5454L53.3474 5.72205e-05H26.6737H0V26.5912ZM43.1992 36.3413C44.9774 41.6901 46.4491 46.1678 46.4491 46.2748C46.4491 46.4123 42.31 46.4582 26.5971 46.4582C10.8841 46.4582 6.74508 46.4123 6.74508 46.2748C6.74508 46.1678 8.21673 41.6901 9.99498 36.3413L13.2602 26.5912H26.5971H39.9339L43.1992 36.3413Z" fill="white"/>
<path d="M62.6992 11.8437V23.3818H74.2732C83.9462 23.3818 85.9237 23.3513 86.2763 23.1679C88.0086 22.2662 89.005 19.2862 88.8671 15.4351C88.8057 13.754 88.7291 13.1427 88.3918 12.1494C87.9473 10.7434 87.2728 9.62779 86.5676 9.13876L86.077 8.78726L78.1516 8.74142L70.2108 8.69557V7.0298V5.34875H78.8721H87.5334V2.82718V0.305601H75.1163H62.6992V11.8437ZM80.7116 13.3872C81.6621 13.754 81.7847 17.1925 80.8649 17.9872C80.4664 18.3387 80.4357 18.3387 75.3309 18.3387H70.2108V15.8171V13.2955H75.3309C78.1516 13.2955 80.5737 13.3414 80.7116 13.3872Z" fill="white"/>
<path d="M92.1328 11.8437V23.3818H103.768H115.388L115.909 23.0303C117.595 21.8995 118.454 19.1028 118.301 15.2822C118.193 12.3939 117.335 10.0863 116.032 9.15404L115.511 8.78726L107.585 8.74142L99.6444 8.69557V7.0298V5.34875H108.306H116.967V2.82718V0.305601H104.55H92.1328V11.8437ZM110.145 13.3872C111.08 13.754 111.234 17.055 110.345 17.9872L110.023 18.3387H104.826H99.6444V15.8171V13.2955H104.765C107.585 13.2955 110.007 13.3414 110.145 13.3872Z" fill="white"/>
<path d="M121.562 11.8437V23.3818H125.318H129.074V18.7972V14.2125L131.42 14.2278H133.75L137.505 18.7972L141.261 23.3818H145.676C148.282 23.3818 150.076 23.3207 150.045 23.2443C150.03 23.1679 147.485 20.2184 144.404 16.6729C141.323 13.1427 138.808 10.1779 138.808 10.1015C138.808 10.0098 141.093 7.9773 143.867 5.5627C146.657 3.16339 149.125 0.993303 149.386 0.748787L149.846 0.305601H145.002H140.173L134.669 5.1348L129.151 9.97928L129.105 5.1348L129.074 0.305601H125.318H121.562V11.8437Z" fill="white"/>
<path d="M95.043 28.5626C95.043 28.9294 95.6715 29.4337 96.2847 29.5712C96.9285 29.724 98.0323 29.5254 98.4002 29.2197C98.5535 29.0822 98.7374 28.8071 98.7988 28.6084C98.8907 28.3028 98.8447 28.2722 98.3542 28.2722C98.0016 28.2722 97.695 28.3792 97.4957 28.5779C97.3271 28.746 97.0512 28.8835 96.8825 28.8835C96.7139 28.8835 96.4533 28.746 96.3153 28.5779C95.9474 28.1652 95.043 28.15 95.043 28.5626Z" fill="white"/>
<path d="M102.525 29.8615C101.114 30.3811 100.562 31.1911 100.562 32.704C100.562 34.7824 101.666 35.7605 104.012 35.7605C105.591 35.7452 106.848 34.8894 106.848 33.8044C106.848 33.4987 106.771 33.4682 106.02 33.4682C105.284 33.4682 105.192 33.514 105.1 33.8196C104.947 34.4768 103.843 34.7366 103.031 34.324C102.509 34.0489 102.249 33.4987 102.249 32.6123C102.249 32.0469 102.341 31.833 102.693 31.4662C103.061 31.0994 103.276 31.023 103.843 31.023C104.533 31.023 105.161 31.3898 105.161 31.7871C105.161 31.8635 105.545 31.9399 106.005 31.9399C106.955 31.9399 107.032 31.8177 106.602 30.9313C106.434 30.5951 106.112 30.2742 105.744 30.0908C104.947 29.6934 103.291 29.5712 102.525 29.8615Z" fill="white"/>
<path d="M62.6992 32.7194V35.6383L64.968 35.5772C67.5894 35.516 67.9267 35.3938 68.2332 34.3852C68.3712 33.9114 68.3712 33.6363 68.2332 33.1626C67.9726 32.2915 67.4974 32.0928 65.6885 32.0928H64.2322V31.6343V31.1759H66.0718H67.9113V30.4882V29.8005H65.3053H62.6992V32.7194ZM66.2404 33.3154C66.593 33.5141 66.6236 34.1559 66.2864 34.2935C66.1484 34.3393 65.6425 34.3852 65.1366 34.3852H64.2322V33.7739V33.1626H65.0907C65.5505 33.1626 66.0718 33.239 66.2404 33.3154Z" fill="white"/>
<path d="M70.7627 29.9379C70.686 30.0449 68.5399 34.7824 68.2639 35.409C68.2026 35.5618 68.4172 35.6077 69.0458 35.6077H69.9042L70.1495 34.9964L70.3948 34.3851H71.5445H72.6789L72.9395 34.9964L73.2001 35.6077H74.7637C76.2661 35.6077 76.358 35.5924 76.8179 35.1798C77.3545 34.6907 77.5384 33.9572 77.5538 32.1997L77.5691 31.1758H78.4889H79.4087V33.3917V35.6077H80.1751H80.9416V32.704V29.8004H78.4889H76.0361V31.6648C76.0361 33.7738 75.8828 34.2781 75.239 34.3545C74.9324 34.3851 74.8097 34.5073 74.7791 34.7977C74.7484 35.0728 74.3958 34.4462 73.522 32.4901L72.3263 29.8004H71.5752C71.1766 29.8004 70.8087 29.8615 70.7627 29.9379ZM71.9737 32.4748C72.1117 32.8721 72.2037 33.2083 72.1577 33.2542C72.1117 33.3 71.8051 33.3153 71.4679 33.2848L70.8547 33.2389L71.1766 32.4442C71.3605 32.0163 71.5445 31.6801 71.6058 31.7107C71.6518 31.7565 71.8204 32.0927 71.9737 32.4748Z" fill="white"/>
<path d="M81.4023 30.4881V31.1758H82.3221H83.2419V33.3917V35.6077H84.085H84.9282V33.3917V31.1758H85.9246H86.921V30.4881V29.8004H84.1617H81.4023V30.4881Z" fill="white"/>
<path d="M87.2266 32.704V35.6077H88.039H88.8362L90.1392 33.8196L91.4422 32.0316L91.4882 33.8196L91.5342 35.6077H92.2854H93.0519V32.704V29.8004H92.3007H91.5495L90.2312 31.5884L88.9128 33.3917V31.5884V29.8004H88.0697H87.2266V32.704Z" fill="white"/>
<path d="M93.9727 32.704V35.6076H94.7851H95.5976L96.9006 33.8349L98.1883 32.0622L98.2343 33.8349L98.2803 35.6229L99.0775 35.5771L99.8746 35.5312L99.9206 32.6582L99.9512 29.8004H99.1234H98.2956L97.0233 31.5578L95.7356 33.3153L95.6896 31.5578L95.6436 29.8004H94.8158H93.9727V32.704Z" fill="white"/>
<path d="M107.309 32.7041V35.6078H108.152H108.98L109.026 34.3088L109.072 33.0251L110.145 34.3088L111.218 35.6078H112.95H114.667L114.912 34.9965L115.157 34.3852H116.307H117.442L117.702 34.9965L117.963 35.6078H119.695H121.412L122.132 34.6144C122.715 33.7892 122.93 33.6211 123.282 33.6211C123.711 33.6211 123.711 33.6211 123.711 34.6297V35.623L124.524 35.5772L125.321 35.5314L125.367 32.6583L125.398 29.8005H123.374C120.431 29.8158 119.726 30.1673 119.726 31.7108C119.726 32.6124 119.925 32.9792 120.584 33.2543L121.121 33.4835L120.615 34.0948C120.339 34.4463 119.986 34.8742 119.848 35.0423C119.572 35.4091 119.68 35.623 117.809 31.4204L117.074 29.7852L116.307 29.8311L115.525 29.8769L114.483 32.1693C113.916 33.4224 113.364 34.6603 113.257 34.9048L113.042 35.3327L111.754 33.9267L110.482 32.536L111.724 31.2829C112.413 30.5952 112.981 29.9686 112.981 29.9075C112.981 29.8463 112.567 29.8005 112.076 29.8005H111.172L110.083 30.962L108.995 32.1234V30.962V29.8005H108.152H107.309V32.7041ZM123.711 31.7872V32.3985H122.73C122.04 32.3985 121.673 32.3221 121.504 32.154C121.213 31.8789 121.213 31.8483 121.412 31.4663C121.55 31.2218 121.749 31.1759 122.638 31.1759H123.711V31.7872ZM116.721 32.536C116.859 32.9028 116.951 33.2237 116.905 33.2696C116.874 33.3001 116.568 33.3154 116.23 33.2849L115.633 33.239L115.939 32.4291C116.276 31.5427 116.338 31.5427 116.721 32.536Z" fill="white"/>
<path d="M81.3887 38.9239C80.7448 39.2601 80.4842 39.5047 80.2236 40.0395C79.7484 40.9565 79.7484 42.1791 80.2236 43.0196C81.0821 44.5478 83.9181 44.9757 85.589 43.8295C86.6161 43.1113 86.9534 41.1857 86.2635 39.9631C85.773 39.0768 84.5926 38.5113 83.2436 38.5113C82.4311 38.5113 82.0478 38.603 81.3887 38.9239ZM84.2093 40.0548C84.4393 40.2229 84.6999 40.6203 84.7919 40.9412C85.2518 42.4694 83.8567 43.7226 82.4158 43.0807C81.8945 42.8362 81.496 41.8734 81.6033 41.1551C81.8026 39.9326 83.2742 39.306 84.2093 40.0548Z" fill="white"/>
<path d="M62.6992 41.4914V44.3186H64.968C67.4361 44.3186 67.712 44.2422 68.1413 43.4017C68.4325 42.8362 68.4325 42.2861 68.1413 41.7206C67.7734 41.0176 67.1908 40.8037 65.6119 40.8037H64.2322V40.3452V39.8867H66.0718H67.9113V39.2755V38.6642H65.3053H62.6992V41.4914ZM66.501 42.5153C66.5623 43.0349 66.1177 43.2488 64.9833 43.2488H64.2322V42.6376V42.011L65.3513 42.0568C66.4243 42.1027 66.455 42.118 66.501 42.5153Z" fill="white"/>
<path d="M68.9844 41.4914V44.3186H71.5904H74.1965V43.7073V43.096H72.3569H70.5173V42.5611V42.0263H72.0503H73.5833V41.415V40.8037H72.0503H70.5173V40.3452V39.8867H72.3569H74.1965V39.2755V38.6642H71.5904H68.9844V41.4914Z" fill="white"/>
<path d="M74.5039 39.2755V39.8867H75.5003H76.4968V42.1027V44.3186H77.2633H78.0297V42.1027V39.8867H79.0262H80.0226V39.2755V38.6642H77.2633H74.5039V39.2755Z" fill="white"/>
<path d="M87.2266 41.4914V44.3186H88.0697H88.9128V43.1724V42.0263H90.1392H91.3656V43.1724V44.3186H92.2087H93.0519V41.4914V38.6642H92.2087H91.3656V39.6575V40.6509H90.1392H88.9128V39.6575V38.6642H88.0697H87.2266V41.4914Z" fill="white"/>
<path d="M93.9727 41.4914V44.3186H94.7391H95.5056V43.1724V42.0263H96.8087H98.1117V43.1724V44.3186H98.8782H99.6447V41.4914V38.6642H98.8782H98.1117V39.6575V40.6509H96.8087H95.5056V39.6575V38.6642H94.7391H93.9727V41.4914Z" fill="white"/>
<path d="M102.034 39.4588C101.85 39.902 101.298 41.1399 100.823 42.1944C100.332 43.2488 99.9492 44.1658 99.9492 44.2269C99.9492 44.2728 100.317 44.3186 100.777 44.3186C101.589 44.3186 101.62 44.3033 101.789 43.7837L101.973 43.2488H103.153H104.334L104.594 43.7837L104.855 44.3186H106.602H108.365L109.024 43.4017C109.546 42.6528 109.745 42.4847 110.097 42.4847C110.527 42.4847 110.527 42.5 110.527 43.4017V44.3186H111.37H112.213V41.4914V38.6642H110.067C107.66 38.6642 107.17 38.8017 106.771 39.5811C106.265 40.5439 106.633 41.7206 107.522 42.0415L108.043 42.2249L107.261 43.1877L106.464 44.1505L106.004 43.1266C105.744 42.5611 105.192 41.3233 104.778 40.3758L104.012 38.6642H103.199H102.402L102.034 39.4588ZM110.527 40.5744V41.2621H109.806C108.733 41.2621 108.396 41.1246 108.273 40.6814C108.135 40.1313 108.549 39.8867 109.638 39.8867H110.527V40.5744ZM103.552 41.1399C103.69 41.5067 103.843 41.8887 103.889 41.9804C103.95 42.118 103.751 42.1791 103.199 42.1791H102.433L102.755 41.3386C102.939 40.8801 103.138 40.498 103.184 40.498C103.245 40.498 103.414 40.7884 103.552 41.1399Z" fill="white"/>
<path d="M143.086 45.4342C139.682 47.0541 139.56 51.8222 142.886 53.4727C145.446 54.7411 148.466 53.4727 149.248 50.783C149.877 48.5977 148.957 46.5498 146.857 45.4648C146.52 45.2814 145.876 45.1591 145.094 45.1286C144.036 45.0674 143.76 45.1133 143.086 45.4342ZM146.014 46.0149C146.841 46.2442 148.144 47.5432 148.374 48.3684C148.758 49.7591 148.42 51.1039 147.455 52.082C146.106 53.4421 144.143 53.5338 142.718 52.296C141.798 51.5166 141.43 50.7066 141.43 49.5146C141.43 47.0541 143.638 45.3578 146.014 46.0149Z" fill="white"/>
<path d="M142.871 49.5147V51.6542H143.484H144.097V50.8901V50.1259H144.864C145.692 50.1259 145.692 50.1259 145.86 51.0734C145.952 51.6389 145.968 51.6542 146.627 51.6542C147.301 51.6542 147.301 51.6389 147.163 51.2568C147.071 51.0429 147.01 50.6761 147.01 50.4469C147.01 50.2176 146.933 49.9578 146.841 49.8661C146.719 49.7439 146.734 49.6063 146.918 49.3466C147.056 49.1479 147.163 48.8422 147.163 48.6588C147.163 47.6502 146.596 47.3751 144.481 47.3751H142.871V49.5147ZM145.86 48.7505C145.86 49.102 145.799 49.1326 144.987 49.1784L144.097 49.2243V48.7505V48.2768L144.987 48.3226C145.799 48.3685 145.86 48.3991 145.86 48.7505Z" fill="white"/>
<path d="M70.2866 47.4209C68.723 47.9405 68.1558 48.7963 68.2478 50.4926C68.2785 51.3026 68.3858 51.6999 68.631 52.0514C69.7961 53.6866 73.3526 53.6408 74.4563 51.9903C75.0849 51.0275 75.0849 49.5298 74.4563 48.567C73.7665 47.5431 71.6817 46.9777 70.2866 47.4209ZM72.7087 49.0561C73.046 49.4228 73.1226 49.6674 73.1226 50.2787C73.1226 51.486 72.1875 52.2348 71.0378 51.9444C70.3326 51.7458 70.0107 51.3026 69.9341 50.3856C69.8881 49.7285 69.9341 49.5145 70.21 49.1631C70.8998 48.292 71.9729 48.2614 72.7087 49.0561Z" fill="white"/>
<path d="M62.6992 50.2787V53.1824H63.4657H64.2169L64.2629 51.8528L64.3088 50.508L65.4432 51.8528L66.5623 53.1824H67.5434C68.08 53.1824 68.5245 53.1518 68.5245 53.0907C68.5245 53.0448 67.896 52.3571 67.1295 51.5472L65.7345 50.0954L67.0835 48.7352L68.4479 47.3751H67.4514L66.455 47.3598L65.3513 48.5518L64.2475 49.7439L64.2322 48.5518V47.3751H63.4657H62.6992V50.2787Z" fill="white"/>
<path d="M75.5742 50.2787V53.1823H76.3407H77.0919L77.1379 51.2415L77.1838 49.2854L77.9503 51.2415L78.7168 53.1976L79.33 53.1518L79.9279 53.1059L80.7403 51.1192L81.5375 49.1325L81.5528 51.1498V53.1823H82.3193H83.0858V50.2787V47.3598L81.982 47.4057L80.863 47.4515L80.1425 49.2854C79.7439 50.294 79.4066 51.1804 79.376 51.2568C79.3453 51.3179 78.9774 50.4774 78.5635 49.3771L77.797 47.3751H76.6933H75.5742V50.2787Z" fill="white"/>
<path d="M84.0078 50.2787V53.1824H84.7743H85.5408V50.89V48.5977H86.7672H87.9935V50.89V53.1824H88.8367H89.6798V50.2787V47.3751H86.8438H84.0078V50.2787Z" fill="white"/>
<path d="M91.1336 50.1412C90.4591 51.6541 89.8919 52.9531 89.8612 53.0448C89.8306 53.1212 90.1832 53.1824 90.643 53.1824C91.4862 53.1824 91.4862 53.1824 91.7315 52.5711L91.9767 51.9598H93.1418H94.3069L94.5368 52.5711C94.7821 53.1824 94.7821 53.1824 95.6099 53.1824C96.0544 53.1824 96.4224 53.1365 96.4224 53.0601C96.4224 52.999 95.8552 51.7 95.1653 50.1565L93.9236 47.3751H93.1418H92.36L91.1336 50.1412ZM93.7243 50.5538C93.8316 50.8747 93.7856 50.89 93.1265 50.89C92.7279 50.89 92.4366 50.8289 92.4673 50.7678C92.4979 50.7066 92.6512 50.294 92.8199 49.8356L93.1265 49.0256L93.3717 49.6216C93.5097 49.9425 93.663 50.3552 93.7243 50.5538Z" fill="white"/>
<path d="M96.5742 50.2787V53.1824H97.4174H98.2605V51.9598V50.7372H99.4869H100.713V51.9598V53.1824H101.556H102.4V50.2787V47.3751H101.556H100.713V48.4449V49.5146H99.4869H98.2605V48.4449V47.3751H97.4174H96.5742V50.2787Z" fill="white"/>
<path d="M103.32 50.294V53.1976L104.117 53.1518L104.93 53.1059L106.233 51.3026L107.536 49.5146L107.582 51.3485L107.628 53.1823H108.379H109.146V50.2787V47.3751H108.348L107.536 47.3904L106.233 49.1784L104.93 50.9664L104.884 49.1631L104.838 47.3751H104.087H103.32V50.294Z" fill="white"/>
<path d="M110.969 47.6196C109.88 48.0781 109.528 49.6216 110.34 50.401C110.57 50.6302 110.892 50.8747 111.03 50.9664C111.275 51.104 111.214 51.2262 110.524 52.0667C110.11 52.5863 109.758 53.0448 109.758 53.0907C109.758 53.1365 110.187 53.1823 110.724 53.1823H111.674L112.364 52.189C112.916 51.3943 113.13 51.1957 113.468 51.1957C113.866 51.1957 113.882 51.2262 113.927 52.1432L113.973 53.1059L114.786 53.1518L115.583 53.1976V50.294V47.3751L113.56 47.3904C112.119 47.3904 111.352 47.4515 110.969 47.6196ZM113.897 49.2854V49.9731H113.038C111.996 49.9731 111.597 49.7744 111.597 49.2701C111.597 48.7963 111.996 48.6129 113.1 48.6129L113.897 48.5977V49.2854Z" fill="white"/>
</svg>
